Coordinates
version=1
nRows=17
nColumns=36
inDegrees=yes

Units are S.I. units (second, meters, Newtons, ...)
If the header above contains a line with 'inDegrees', this indicates whether rotational values are in degrees (yes) or radians (no).

endheader
time	pelvis_tilt	pelvis_list	pelvis_rotation	pelvis_tx	pelvis_ty	pelvis_tz	hip_flexion_r	hip_adduction_r	hip_rotation_r	knee_angle_r	knee_angle_r_beta	ankle_angle_r	subtalar_angle_r	mtp_angle_r	hip_flexion_l	hip_adduction_l	hip_rotation_l	knee_angle_l	knee_angle_l_beta	ankle_angle_l	subtalar_angle_l	mtp_angle_l	lumbar_extension	lumbar_bending	lumbar_rotation	arm_flex_r	arm_add_r	arm_rot_r	elbow_flex_r	pro_sup_r	arm_flex_l	arm_add_l	arm_rot_l	elbow_flex_l	pro_sup_l
      7.40000000	    -37.16929468	      5.60196019	    -10.43178711	      0.71303302	      0.74056780	      0.35975625	     79.00385961	      3.12801771	    -12.72729642	     73.92779915	      1.29028350	     33.01189034	      7.49319513	     -7.49999987	     94.12780128	     -7.41027344	      8.66434954	     21.63436708	      0.37759094	     -4.41952687	     13.38865751	     -7.49999987	     -4.65709632	     12.90846073	      6.31551580	     70.01945591	     -9.86818533	     87.06900053	    116.27262747	     97.01166443	     47.98597683	     -2.35099642	     61.64604664	    117.95845489	    112.90812922
      7.41666670	    -36.67414639	      5.52983072	    -10.46833117	      0.72013452	      0.74528966	      0.36327438	     78.03175291	      3.27789112	    -12.53994708	     73.27590759	      1.27890585	     32.41790492	      7.18397339	     -7.49999987	     93.21040761	     -7.31549967	      8.86328310	     20.85329078	      0.36395858	     -4.40155203	     13.35808687	     -7.49999987	     -4.79128983	     12.94330072	      5.93466446	     69.60828494	     -9.45961466	     86.77313711	    115.46243235	     97.07387931	     47.92434476	     -2.87749632	     61.57459925	    118.18216725	    112.73365738
      7.43333330	    -36.27085083	      5.54414670	    -10.59124449	      0.72499668	      0.75206509	      0.36161968	     76.98752702	      3.47652784	    -12.29016631	     72.31704047	      1.26217046	     31.86113221	      6.94550336	     -7.49999987	     92.24883816	     -7.24855517	      8.74527872	     19.97098223	      0.34855939	     -4.66065783	     13.46713902	     -7.49999987	     -4.58019438	     13.12159123	      5.80516275	     68.94846069	     -8.95790330	     87.15842948	    115.87816466	     97.15269523	     47.45102298	     -2.88785961	     61.74191324	    118.43409406	    112.69563673
      7.45000000	    -35.58383886	      5.38979035	    -10.56052059	      0.73153458	      0.75511384	      0.36463974	     75.56601254	      3.69534239	    -11.98701145	     71.55435130	      1.24885902	     31.43250437	      6.36049496	     -7.49999987	     91.07997258	     -7.02627482	      8.89898716	     19.76272802	      0.34492467	     -4.52025705	     13.22504083	     -7.49999987	     -4.59351341	     13.12384196	      5.20768165	     67.88014871	     -8.18889536	     86.68537119	    116.86201330	     97.31576393	     46.94165329	     -2.86008169	     61.95614052	    119.47865485	    112.63493239
      7.46666670	    -35.33042777	      5.34653807	    -10.58583300	      0.73042936	      0.76133528	      0.36508478	     74.73342787	      3.95584584	    -11.69601402	     70.82420375	      1.23611555	     31.12174753	      6.27599081	     -7.49999987	     90.39543496	     -6.86403816	      8.78864269	     19.54850957	      0.34118586	     -4.55429830	     13.15749039	     -7.49999987	     -4.16359459	     12.96860284	      5.06733453	     67.63952182	     -7.94684190	     86.63082787	    117.06173128	     97.36145366	     46.62938917	     -2.71780726	     62.10311085	    119.60296874	    112.62203370
      7.48333330	    -34.38450086	      5.32650128	    -10.67133627	      0.72530596	      0.76806163	      0.36171248	     73.39883395	      4.11863563	    -11.22147965	     69.92749473	      1.22046502	     29.82160018	      4.92340983	     -7.49999987	     89.05695330	     -6.56927036	      8.57095557	     19.24487266	      0.33588639	     -5.07693811	     12.97057536	     -7.49999987	     -5.16523032	     12.95098124	      5.00336293	     68.33658477	     -8.41053323	     86.54751574	    116.79321689	     97.60490749	     47.26486487	     -3.02092206	     61.30595302	    119.49692397	    112.48951199
      7.50000000	    -33.76422718	      5.19628420	    -10.71831193	      0.73089791	      0.77282003	      0.36556793	     72.20222986	      4.27676820	    -11.01291560	     69.05717423	      1.20527506	     29.23474209	      4.56376726	     -7.49999987	     88.01849533	     -6.33973341	      8.64014929	     19.25525978	      0.33606768	     -4.97409932	     12.73798820	     -7.49999987	     -5.49805568	     12.87921850	      4.90689293	     68.25907445	     -8.24746945	     86.83674725	    116.63974989	     97.88628046	     47.15282409	     -3.50812259	     61.41603914	    119.70225703	    112.35203341
      7.51666670	    -32.93939068	      5.07101601	    -11.02021931	      0.73206305	      0.78202132	      0.36559941	     70.68456827	      4.70572979	    -10.57662549	     67.87565436	      1.18465365	     28.38838154	      3.66929846	     -7.49999987	     86.83331408	     -6.30793075	      8.57194191	     19.32066055	      0.33720914	     -4.85421814	     12.67092375	     -7.49999987	     -6.31876907	     12.91634495	      4.86484680	     68.28957261	     -7.56041523	     86.00783414	    116.56803059	     98.04325386	     46.94066642	     -3.74800560	     61.32909511	    119.68149409	    112.14021292
      7.53333330	    -31.84488155	      4.73360259	    -11.27116826	      0.73166217	      0.78904961	      0.36647033	     68.71800096	      5.17311648	    -10.26975374	     66.46140578	      1.15997036	     27.48118980	      2.92132294	     -7.49999987	     85.33906567	     -6.29548942	      8.75679706	     19.24925836	      0.33596294	     -4.71284345	     12.55818223	     -7.49999987	     -7.34830195	     13.07530360	      5.02572700	     68.94494252	     -7.18643575	     85.71682042	    117.53601327	     97.08698489	     47.55028159	     -3.53069819	     61.02536260	    120.73465343	    112.27001652
      7.55000000	    -30.99393222	      4.54733174	    -11.52644897	      0.73300243	      0.79898186	      0.36697763	     66.87977735	      5.57815149	     -9.99445154	     64.60757910	      1.12761498	     26.20384911	      1.99164369	     -7.49999987	     83.69544113	     -6.30846452	      8.88096645	     18.51492470	      0.32314640	     -4.93212906	     12.38243211	     -7.49999987	     -7.67554203	     13.10429763	      4.91673823	     68.76331188	     -7.22800072	     85.48455678	    117.01379744	     97.22051012	     47.85634033	     -3.29571582	     60.83886676	    120.45928649	    112.00150450
      7.56666670	    -29.69643700	      4.18653610	    -11.75653868	      0.73284372	      0.80739440	      0.36822807	     64.57143725	      6.01101636	     -9.72484094	     62.79164648	      1.09592097	     24.88894059	      0.88819729	     -7.49999987	     81.70606251	     -6.34564429	      9.06487262	     18.13691017	      0.31654880	     -4.85256023	     12.19741355	     -7.49999987	     -9.08465564	     12.94560015	      4.84460558	     68.91121403	     -7.46807730	     85.58538240	    116.91711450	     98.01740682	     48.87154950	     -3.23406734	     61.20211565	    120.10181382	    112.22451251
      7.58333330	    -28.82713674	      3.92551961	    -11.84833178	      0.73367583	      0.81505345	      0.36818017	     62.97685802	      6.37753593	     -9.31000263	     61.12520576	      1.06683610	     23.29368193	     -0.38393207	     -7.49999987	     80.27262547	     -6.23501166	      8.87574489	     17.81524169	      0.31093462	     -5.01889809	     12.49076346	     -7.49999987	     -9.99024401	     12.91953761	      4.88336069	     69.12944840	     -6.95331007	     84.83732657	    117.02160118	     99.15159096	     48.94740119	     -3.69559074	     61.36478623	    120.18060493	    112.05708172
      7.60000000	    -28.03460891	      3.61441880	    -11.91285905	      0.73286006	      0.81920480	      0.36845685	     61.31739990	      6.83394677	     -8.88969781	     59.53025166	      1.03899890	     22.36976617	     -1.06777028	     -7.49999987	     79.07726205	     -6.10603077	      8.99953297	     17.84012897	      0.31136899	     -4.86346569	     12.22512055	     -7.49999987	    -10.39154384	     12.82464209	      5.09425639	     69.15977427	     -6.81031128	     83.38136989	    117.81295443	     99.15896632	     49.63478611	     -3.62914696	     61.51298156	    120.47648731	    111.87982678
      7.61666670	    -27.30427576	      3.40902124	    -11.70332250	      0.73388804	      0.82416354	      0.36797239	     59.66797864	      6.96756731	     -8.54153819	     57.86864022	      1.00999831	     21.59291879	     -1.57123313	     -7.49999987	     77.99762133	     -5.72311468	      9.13268989	     18.04367728	      0.31492158	     -4.56658504	     11.67925324	     -7.49999987	    -10.21051890	     12.63627312	      4.82011771	     69.26796932	     -6.99722257	     82.24948055	    118.56343400	     98.76561189	     50.79053900	     -2.97426781	     61.51947766	    121.13585888	    111.63031183
      7.63333330	    -26.27263631	      3.12671606	    -11.34739301	      0.73910514	      0.83774179	      0.37127366	     56.99708895	      7.21931334	     -7.95287855	     55.30354415	      0.96522893	     20.50396249	     -2.57064157	     -7.49999987	     76.00594719	     -5.22656772	      9.13678146	     17.63453382	      0.30778068	     -4.62449978	     11.13992987	     -7.49999987	    -10.51450754	     12.29836982	      4.11794906	     67.97453519	     -7.28435796	     81.79191151	    117.52681214	     98.71263777	     50.29109529	     -3.25337059	     61.90403976	    120.02753226	    111.88463028
      7.65000000	    -25.09652238	      2.67469331	    -11.09520853	      0.73958405	      0.84596661	      0.37076421	     54.07344380	      7.59444879	     -7.42105934	     52.33612536	      0.91343771	     19.01137411	     -3.79514127	     -7.49999987	     73.83157224	     -4.93370284	      9.15957108	     16.90231030	      0.29500097	     -4.55805659	     10.93801399	     -7.49999987	    -11.13462875	     12.31125479	      3.67526841	     67.46952003	     -7.10028496	     81.09320934	    117.67219510	    100.98716354	     50.24675761	     -3.37097508	     61.98778087	    119.40361115	    111.55602141
      7.66666670	    -24.42248781	      2.33941101	    -10.85429264	      0.73858695	      0.85568897	      0.37134174	     51.82138917	      7.93939735	     -7.02183863	     49.33609592	      0.86107731	     17.05519501	     -5.15643827	     -7.49999987	     72.05705308	     -4.63733813	      9.44701390	     15.92995757	      0.27803021	     -4.84606286	     10.92389893	     -7.49999987	    -11.51546470	     12.32585800	      3.31035832	     67.40578452	     -6.65568151	     80.50627407	    117.81533868	    100.99001627	     50.45353772	     -3.63799822	     62.30917308	    118.87792409	    111.50999646
